<svg width="2720" height="2016" viewBox="0 0 2720 2016" fill="none" xmlns="http://www.w3.org/2000/svg">
<g clip-path="url(#clip0_0_742)">
<rect width="2720" height="2016" fill="#0B1C2D"/>
<g opacity="0.1">
<path fill-rule="evenodd" clip-rule="evenodd" d="M-12.3259 -162.687V29.6331C-114.993 11.0814 -191.858 -62.0722 -191.858 -149.241V-162.687H-12.3259ZM-236.984 -198.828V-149.24C-236.984 -28.3146 -113.256 70.0644 38.8215 70.0644C60.8936 70.0644 82.8958 68.0713 104.217 64.1389L94.0187 29.1865C76.037 32.5036 57.4665 34.1845 38.8215 34.1845C36.8045 34.1845 34.7987 34.1648 32.7975 34.1236V-162.686V-198.828H-236.984Z" fill="#F9F0DF" fill-opacity="0.3"/>
<path fill-rule="evenodd" clip-rule="evenodd" d="M857.034 40.5588L897.338 40.5588V4.67057H857.034V-119.953H811.749V4.67057H707.531V40.5588H811.749V70.0643L857.034 70.0643V40.5588Z" fill="#F9F0DF" fill-opacity="0.3"/>
<path fill-rule="evenodd" clip-rule="evenodd" d="M1168.55 29.1708C1244.81 11.0867 1297.22 -44.1364 1297.22 -107.829C1297.22 -186.72 1216 -250.899 1116.17 -250.899C1104.1 -250.899 1092.13 -249.964 1080.44 -248.111V-112.105C1080.44 -56.6836 1113.19 -4.47031 1168.55 29.1708M1116.17 -286.667C1240.96 -286.667 1342.48 -206.442 1342.48 -107.829C1342.48 -67.4389 1324.96 -27.8444 1293.13 3.6614C1261.81 34.6754 1208.68 59.0473 1160.11 68.2717C1087.59 28.2479 1035.17 -42.2747 1035.17 -112.105V-262.06V-275.616C1056.11 -280.579 1082.7 -286.667 1116.17 -286.667" fill="#F9F0DF" fill-opacity="0.3"/>
<path fill-rule="evenodd" clip-rule="evenodd" d="M576.637 -145.05L594.551 -112.222C505.31 -81.6874 447.647 -12.2276 447.647 64.7385V68.2717H402.485V64.7385C402.485 -26.5055 470.845 -108.854 576.637 -145.05" fill="#F9F0DF" fill-opacity="0.3"/>
<path fill-rule="evenodd" clip-rule="evenodd" d="M1962.74 -147.739H1917.49C1915.38 -47.6995 1812.44 33.1674 1686.2 33.1674L1479.19 33.1674V69.1682L1686.2 69.1682C1837.4 69.1682 1960.62 -27.8487 1962.74 -147.739" fill="#F9F0DF" fill-opacity="0.3"/>
<path fill-rule="evenodd" clip-rule="evenodd" d="M877.063 695.351C953.321 713.435 1005.73 768.658 1005.73 832.351C1005.73 911.242 924.512 975.421 824.682 975.421C812.606 975.421 800.641 974.486 788.947 972.633V836.627C788.947 781.206 821.703 728.992 877.063 695.351M824.682 1011.19C949.469 1011.19 1050.99 930.964 1050.99 832.351C1050.99 791.961 1033.47 752.366 1001.64 720.861C970.317 689.847 917.19 665.475 868.62 656.25C796.103 696.274 743.685 766.797 743.685 836.627V986.582V1000.14C764.626 1005.1 791.21 1011.19 824.682 1011.19" fill="#F9F0DF" fill-opacity="0.3"/>
<path fill-rule="evenodd" clip-rule="evenodd" d="M-156.595 778.438V970.757C-53.9282 952.206 22.9372 879.052 22.9372 791.884V778.438H-156.595ZM68.0629 742.296V791.884C68.0629 912.81 -55.6655 1011.19 -207.743 1011.19C-229.815 1011.19 -251.817 1009.2 -273.138 1005.26L-262.94 970.311C-244.958 973.628 -226.388 975.309 -207.743 975.309C-205.726 975.309 -203.72 975.289 -201.719 975.248V778.438V742.296H68.0629Z" fill="#F9F0DF" fill-opacity="0.3"/>
<path fill-rule="evenodd" clip-rule="evenodd" d="M1844.2 555.868V400.167C1844.2 310.468 1762.58 235.633 1655.24 220.027L1844.2 555.868ZM1586.52 181.207H1613.62C1765.63 181.207 1889.31 279.431 1889.31 400.166V620.398H1831.11L1604.15 217.03L1586.52 181.207Z" fill="#F9F0DF" fill-opacity="0.3"/>
<path fill-rule="evenodd" clip-rule="evenodd" d="M368.591 571.997H418.152L508.629 732.419V576.592C508.629 575.052 508.546 573.528 508.5 571.997H553.806C553.847 573.526 553.878 575.056 553.878 576.592V796.075H494.969L368.591 571.997Z" fill="#F9F0DF" fill-opacity="0.3"/>
<path fill-rule="evenodd" clip-rule="evenodd" d="M257.87 165.073V215.353C257.87 306.524 187.789 384.857 88.3994 417.832V378.328C162.319 347.853 212.976 286.243 212.976 215.353V201.917H88.3994V165.073H257.87Z" fill="#F9F0DF" fill-opacity="0.3"/>
<path fill-rule="evenodd" clip-rule="evenodd" d="M377.792 1011.19L395.706 978.361C306.465 947.826 248.802 878.367 248.802 801.4V797.867H203.639V801.4C203.639 892.644 271.999 974.993 377.792 1011.19" fill="#F9F0DF" fill-opacity="0.3"/>
<path fill-rule="evenodd" clip-rule="evenodd" d="M1288.25 181.207V217.107C1162.15 218.785 1060.22 300.443 1060.22 400.597V564.827H1014.84V400.597C1014.84 280.648 1137.13 182.889 1288.25 181.207" fill="#F9F0DF" fill-opacity="0.3"/>
<path fill-rule="evenodd" clip-rule="evenodd" d="M645.22 413.958V221.638C542.553 240.19 465.687 313.343 465.687 400.512V413.958L645.22 413.958ZM420.562 450.099V400.512C420.562 279.586 544.29 181.207 696.367 181.207C718.439 181.207 740.441 183.2 761.762 187.132L751.564 222.085C733.583 218.768 715.012 217.087 696.367 217.087C694.35 217.087 692.344 217.106 690.343 217.148V413.958V450.099L420.562 450.099Z" fill="#F9F0DF" fill-opacity="0.3"/>
<path fill-rule="evenodd" clip-rule="evenodd" d="M1785.36 1011.19V960.909C1785.36 869.738 1855.44 791.404 1954.83 758.43V797.933C1880.91 828.409 1830.26 890.019 1830.26 960.909V974.345H1954.83V1011.19H1785.36Z" fill="#F9F0DF" fill-opacity="0.3"/>
<path fill-rule="evenodd" clip-rule="evenodd" d="M1211.42 1011.19V975.289C1337.52 973.61 1439.46 891.952 1439.46 791.798V627.569H1484.84V791.798C1484.84 911.748 1362.55 1009.51 1211.42 1011.19" fill="#F9F0DF" fill-opacity="0.3"/>
<path d="M1480.32 337.164V469.818H1435.12V373.017H1279.21V337.164H1480.32Z" fill="#F9F0DF" fill-opacity="0.3"/>
<path fill-rule="evenodd" clip-rule="evenodd" d="M2291.52 70.0643V19.7846C2291.52 -71.3864 2221.43 -149.72 2122.05 -182.695V-143.191C2195.96 -112.715 2246.62 -51.1057 2246.62 19.7846V33.2209L2122.05 33.2209V70.0643L2291.52 70.0643Z" fill="#F9F0DF" fill-opacity="0.3"/>
<path fill-rule="evenodd" clip-rule="evenodd" d="M2732.14 70.0643V34.1643C2606.04 32.486 2504.11 -49.1721 2504.11 -149.326V-313.556H2458.73V-149.326C2458.73 -29.3769 2581.02 68.3824 2732.14 70.0643" fill="#F9F0DF" fill-opacity="0.3"/>
<path fill-rule="evenodd" clip-rule="evenodd" d="M2476.72 245.737V401.438C2476.72 491.136 2558.33 565.971 2665.68 581.578L2476.72 245.737ZM2734.4 620.398H2707.3C2555.28 620.398 2431.61 522.174 2431.61 401.438V181.207H2489.81L2716.77 584.575L2734.4 620.398Z" fill="#F9F0DF" fill-opacity="0.3"/>
<path fill-rule="evenodd" clip-rule="evenodd" d="M2241.8 405.284H2192.24L2101.77 244.863V400.689C2101.77 402.229 2101.85 403.753 2101.89 405.284H2056.59C2056.55 403.755 2056.52 402.226 2056.52 400.689V181.207H2115.43L2241.8 405.284Z" fill="#F9F0DF" fill-opacity="0.3"/>
<path fill-rule="evenodd" clip-rule="evenodd" d="M2091.54 793.386H2136.79C2138.91 893.425 2241.84 974.292 2368.08 974.292H2575.1V1010.29H2368.08C2216.89 1010.29 2093.66 913.276 2091.54 793.386" fill="#F9F0DF" fill-opacity="0.3"/>
<rect width="167.211" height="35.8524" transform="matrix(-1 0 0 1 2695.99 814.001)" fill="#F9F0DF" fill-opacity="0.3"/>
<rect width="224.077" height="45.1921" transform="matrix(0 1 1 0 2236.16 517.323)" fill="#F9F0DF" fill-opacity="0.3"/>
<path fill-rule="evenodd" clip-rule="evenodd" d="M-12.3259 1680.12V1872.44C-114.993 1853.89 -191.858 1780.74 -191.858 1693.57V1680.12H-12.3259ZM-236.984 1643.98V1693.57C-236.984 1814.5 -113.256 1912.88 38.8215 1912.88C60.8936 1912.88 82.8958 1910.88 104.217 1906.95L94.0187 1872C76.037 1875.31 57.4665 1877 38.8215 1877C36.8045 1877 34.7987 1876.98 32.7975 1876.93V1680.12V1643.98H-236.984Z" fill="#F9F0DF" fill-opacity="0.3"/>
<path fill-rule="evenodd" clip-rule="evenodd" d="M452.196 1450.38H402.635L312.157 1610.8V1454.97C312.157 1453.43 312.241 1451.91 312.286 1450.38H266.981C266.94 1451.91 266.908 1453.44 266.908 1454.97V1674.46H325.818L452.196 1450.38Z" fill="#F9F0DF" fill-opacity="0.3"/>
<path fill-rule="evenodd" clip-rule="evenodd" d="M857.034 1883.37H897.338V1847.48H857.034V1722.86H811.749V1847.48H707.531V1883.37H811.749V1912.88H857.034V1883.37Z" fill="#F9F0DF" fill-opacity="0.3"/>
<path fill-rule="evenodd" clip-rule="evenodd" d="M580.994 1116.95V1167.23C580.994 1258.4 651.074 1336.74 750.464 1369.71V1330.21C676.545 1299.73 625.887 1238.12 625.887 1167.23V1153.8H750.464V1116.95H580.994Z" fill="#F9F0DF" fill-opacity="0.3"/>
<path fill-rule="evenodd" clip-rule="evenodd" d="M797.753 1556.14L779.839 1523.32C869.08 1492.78 926.743 1423.32 926.743 1346.36V1342.82H971.905V1346.36C971.905 1437.6 903.545 1519.95 797.753 1556.14" fill="#F9F0DF" fill-opacity="0.3"/>
<path fill-rule="evenodd" clip-rule="evenodd" d="M1168.55 1871.98C1244.81 1853.9 1297.22 1798.67 1297.22 1734.98C1297.22 1656.09 1216 1591.91 1116.17 1591.91C1104.1 1591.91 1092.13 1592.85 1080.44 1594.7V1730.71C1080.44 1786.13 1113.19 1838.34 1168.55 1871.98M1116.17 1556.14C1240.96 1556.14 1342.48 1636.37 1342.48 1734.98C1342.48 1775.37 1324.96 1814.97 1293.13 1846.47C1261.81 1877.49 1208.68 1901.86 1160.11 1911.08C1087.59 1871.06 1035.17 1800.54 1035.17 1730.71V1580.75V1567.2C1056.11 1562.23 1082.7 1556.14 1116.17 1556.14" fill="#F9F0DF" fill-opacity="0.3"/>
<path fill-rule="evenodd" clip-rule="evenodd" d="M180.086 1315.64L180.086 1123.32C282.753 1141.88 359.619 1215.03 359.619 1302.2V1315.64H180.086ZM404.744 1351.79V1302.2C404.744 1181.27 281.016 1082.89 128.939 1082.89C106.867 1082.89 84.8645 1084.89 63.5437 1088.82L73.7415 1123.77C91.7232 1120.45 110.294 1118.77 128.939 1118.77C130.956 1118.77 132.962 1118.79 134.963 1118.83L134.963 1315.64V1351.79H404.744Z" fill="#F9F0DF" fill-opacity="0.3"/>
<path fill-rule="evenodd" clip-rule="evenodd" d="M1466.85 1147.42V1303.12C1466.85 1392.82 1385.23 1467.66 1277.88 1483.26L1466.85 1147.42ZM1209.16 1522.08H1236.26C1388.28 1522.08 1511.95 1423.86 1511.95 1303.12V1082.89H1453.75L1226.79 1486.26L1209.16 1522.08Z" fill="#F9F0DF" fill-opacity="0.3"/>
<path fill-rule="evenodd" clip-rule="evenodd" d="M1701.76 1342.82H1751.32L1841.8 1182.4V1338.23C1841.8 1339.77 1841.71 1341.29 1841.67 1342.82H1886.97C1887.01 1341.29 1887.05 1339.76 1887.05 1338.23V1118.75H1828.14L1701.76 1342.82Z" fill="#F9F0DF" fill-opacity="0.3"/>
<path fill-rule="evenodd" clip-rule="evenodd" d="M1151.64 1114.87V1082.89H1106.4V1114.87H949.309V1150.79H1106.4V1233.47H1151.64V1150.79H1188.83V1114.87H1151.64Z" fill="#F9F0DF" fill-opacity="0.3"/>
<path fill-rule="evenodd" clip-rule="evenodd" d="M576.637 1697.76L594.551 1730.59C505.31 1761.12 447.647 1830.58 447.647 1907.55V1911.08H402.485V1907.55C402.485 1816.31 470.845 1733.96 576.637 1697.76" fill="#F9F0DF" fill-opacity="0.3"/>
<path fill-rule="evenodd" clip-rule="evenodd" d="M1962.74 1695.07H1917.49C1915.38 1795.11 1812.44 1875.98 1686.2 1875.98H1479.19V1911.98H1686.2C1837.4 1911.98 1960.62 1814.96 1962.74 1695.07" fill="#F9F0DF" fill-opacity="0.3"/>
<rect x="1707.41" y="1419.01" width="224.077" height="45.1921" transform="rotate(90 1707.41 1419.01)" fill="#F9F0DF" fill-opacity="0.3"/>
<path fill-rule="evenodd" clip-rule="evenodd" d="M257.87 2007.88V2058.16C257.87 2149.34 187.789 2227.67 88.3994 2260.64V2221.14C162.319 2190.66 212.976 2129.05 212.976 2058.16V2044.73H88.3994V2007.88H257.87Z" fill="#F9F0DF" fill-opacity="0.3"/>
<path fill-rule="evenodd" clip-rule="evenodd" d="M2099.36 1457.55V1301.85C2099.36 1212.15 2180.98 1137.32 2288.32 1121.71L2099.36 1457.55ZM2357.04 1082.89H2329.95C2177.93 1082.89 2054.26 1181.12 2054.26 1301.85V1522.08H2112.46L2339.41 1118.72L2357.04 1082.89Z" fill="#F9F0DF" fill-opacity="0.3"/>
<path fill-rule="evenodd" clip-rule="evenodd" d="M2458.73 1118.75V1154.65C2584.83 1156.32 2686.76 1237.98 2686.76 1338.14V1502.37H2732.14V1338.14C2732.14 1218.19 2609.85 1120.43 2458.73 1118.75" fill="#F9F0DF" fill-opacity="0.3"/>
<path fill-rule="evenodd" clip-rule="evenodd" d="M2291.52 1912.88V1862.6C2291.52 1771.42 2221.43 1693.09 2122.05 1660.12V1699.62C2195.96 1730.1 2246.62 1791.71 2246.62 1862.6V1876.03H2122.05V1912.88H2291.52Z" fill="#F9F0DF" fill-opacity="0.3"/>
<path fill-rule="evenodd" clip-rule="evenodd" d="M2732.14 1912.88V1876.98C2606.04 1875.3 2504.11 1793.64 2504.11 1693.49V1529.26H2458.73V1693.49C2458.73 1813.43 2581.02 1911.19 2732.14 1912.88" fill="#F9F0DF" fill-opacity="0.3"/>
<rect x="2334.45" y="1366.13" width="167.211" height="35.8524" fill="#F9F0DF" fill-opacity="0.3"/>
</g>
</g>
<defs>
<clipPath id="clip0_0_742">
<rect width="2720" height="2016" fill="white"/>
</clipPath>
</defs>
</svg>
